<svg width="32" height="32" viewBox="0 0 32 32" xmlns="http://www.w3.org/2000/svg">
  <defs>
    <linearGradient id="commaGradient" x1="0%" y1="0%" x2="100%" y2="100%">
      <stop offset="0%" style="stop-color:#4a90e2;stop-opacity:1" />
      <stop offset="100%" style="stop-color:#357abd;stop-opacity:1" />
    </linearGradient>
  </defs>
  
  <!-- Background -->
  <rect width="32" height="32" rx="6" fill="url(#commaGradient)"/>
  
  <!-- Proper comma - moved left and twice as big -->
  <g fill="white" transform="translate(16,16) scale(0.24) translate(-190,-320)">
    <path d="m 166,375 v -8.6 q 20.1,-6.6 31.1,-20.7 11.1,-13.9 11.1,-29.5 0,-3.7 -1.8,-6.2 -1.4,-1.8 -2.7,-1.8 -2.1,0 -9.4,3.9 -3.5,1.8 -7.4,1.8 -9.6,0 -15.2,-5.7 -5.7,-5.7 -5.7,-15.6 0,-9.6 7.2,-16.4 7.4,-6.8 18,-6.8 12.9,0 22.9,11.3 10.2,11.1 10.2,29.7 0,20.1 -14.1,37.3 -13.9,17.4 -44.1,27.3 z" />
  </g>
</svg>